<svg xmlns="http://www.w3.org/2000/svg" width="32" height="32" viewBox="0 0 32 32">
  <circle cx="16" cy="16" r="16" fill="#2563eb"/>
  <path fill="#ffffff" d="M16 2C8.268 2 2 8.268 2 16c0 6.175 4.003 11.404 9.54 13.246.7.129.956-.304.956-.675v-2.366c-3.873.842-4.69-1.864-4.69-1.864-.634-1.61-1.548-2.04-1.548-2.04-1.266-.866.096-.848.096-.848 1.4.098 2.138 1.438 2.138 1.438 1.246 2.136 3.268 1.52 4.062 1.162.126-.904.488-1.52.886-1.868-3.102-.352-6.362-1.55-6.362-6.902 0-1.526.546-2.772 1.442-3.748-.144-.354-.626-1.78.138-3.71 0 0 1.174-.376 3.846 1.432a13.26 13.26 0 0 1 3.5-.47c1.184 0 2.376.158 3.5.47 2.67-1.808 3.844-1.432 3.844-1.432.766 1.93.284 3.356.14 3.71.896.976 1.44 2.222 1.44 3.748 0 5.366-3.266 6.546-6.376 6.892.502.434.95 1.29.95 2.598v3.852c0 .374.252.81.964.674C25.998 27.402 30 22.174 30 16c0-7.732-6.268-14-14-14z"/>
</svg>
